<svg width="354" height="208" viewBox="0 0 354 208" fill="none" xmlns="http://www.w3.org/2000/svg">
<g clip-path="url(#clip0_2700_8169)">
<path d="M314.279 162.799C315.292 162.013 316.155 161.19 316.829 160.33C324.229 155.187 325.831 146.126 325.524 142.582C325.362 140.714 323.822 133.026 322.973 124.168C322.408 118.27 323.358 111.66 320.808 106.611C317.687 100.431 312.044 100.228 310.632 98.6312C281.754 65.9882 264.509 68.7212 254.551 68.2822C251.339 68.1402 180.313 67.7042 162.802 68.8512C153.69 69.4482 146.474 70.6192 140.37 72.3892C158.886 71.3112 208.366 72.0162 226.647 72.4152C232.352 72.5402 230.85 75.1122 229.595 76.9852C222.212 88.0022 213.927 97.8422 206.211 105.336C203.172 108.288 199.49 110.79 194.593 110.864C194.593 110.864 177.461 113.188 128.142 112.563C101.887 112.231 88.5374 112.372 82.5764 112.501C80.3494 113.151 49.8834 122.139 36.8494 130.869C36.2654 131.26 35.6874 131.662 35.1174 132.079C39.6534 133.8 44.1364 136.794 46.7374 138.695C46.8535 138.773 46.9785 138.834 47.0935 138.916C47.5515 139.24 48.0065 139.61 48.4594 139.998C48.8094 140.273 49.0194 140.445 49.0194 140.445C48.9814 140.422 48.9424 140.403 48.9044 140.38C49.5475 140.96 50.1564 141.501 50.6814 142.035C50.9515 142.309 51.1934 142.581 51.4084 142.854C51.7804 143.325 52.0564 143.803 52.1994 144.302L55.2755 144.526L56.3674 144.605C56.5474 144.205 56.7484 143.766 56.9664 143.3C58.7164 139.557 61.5694 134.067 63.7614 132.838C67.1594 130.932 87.8044 122.512 87.8044 122.512C87.8044 122.512 71.2745 132.089 68.1965 133.721C66.6125 134.561 65.4845 138.024 64.7625 141.189C64.4214 142.683 64.1704 144.108 64.0054 145.161L64.5894 145.203L73.8775 145.879L73.9404 145.884L83.9814 145.488L88.4825 145.31C88.8045 144.579 89.2284 143.644 89.7204 142.613C91.1084 139.704 93.0415 136.039 94.8074 134.044C95.2854 133.504 95.7514 133.084 96.1915 132.837C99.5895 130.931 124.939 120.58 124.939 120.58C124.939 120.58 107.517 130.023 101.947 133.014C101.368 133.325 100.916 133.567 100.626 133.72C98.3335 134.936 96.9954 141.65 96.4624 144.995L115.377 144.249C115.846 143.817 116.265 143.444 116.663 143.11C117.016 142.813 117.365 142.536 117.727 142.265C118.479 141.703 119.311 141.147 120.505 140.38C120.451 140.403 120.397 140.422 120.344 140.445C120.344 140.445 120.639 140.273 121.13 139.998C121.765 139.61 122.405 139.24 123.049 138.916C123.21 138.835 123.386 138.774 123.549 138.695C127.188 136.802 133.449 133.823 139.794 132.099C140.817 131.821 141.841 131.578 142.857 131.376C143.297 131.288 143.735 131.206 144.171 131.135C151.432 129.949 157.309 129.315 161.786 129.198C165.064 129.113 167.579 129.309 169.341 129.768C170.639 130.106 171.538 130.584 172.005 131.206C173.799 133.594 172.702 138.903 168.308 142.464C169.9 139.562 170.034 136.512 168.841 134.862C168.811 134.821 168.761 134.788 168.727 134.749C167.819 136.8 165.594 141.255 161.792 142.142C159.884 142.587 151.601 143.078 148.976 143.485C146.351 143.892 142.669 141.443 142.669 141.443C141.84 142.585 139.767 144.773 138.121 145.612C136.578 146.399 127.766 147.07 123.991 146.771L114.95 147.389L114.684 147.394L95.7245 147.742L90.3085 147.842L83.9825 147.958L80.0824 148.03L73.1385 148.158L71.9525 148.108L60.8855 147.637L52.5245 147.282L51.6605 147.245L43.3825 146.893L43.5255 146.827C40.6055 146.73 36.8935 146.205 36.0765 145.613C34.9185 144.774 33.4594 142.586 32.8764 141.444C32.8764 141.444 30.2855 143.894 28.4395 143.486C27.9525 143.379 27.1755 143.246 26.2805 143.091C25.6395 144.597 25.0635 146.283 24.5635 148.179C23.7805 151.149 23.1815 154.635 22.8175 158.791C22.3355 164.285 22.8265 168.923 24.1705 172.757C25.6744 172.978 30.7064 173.214 32.5334 166.884C34.0644 161.576 37.7714 159.507 44.5874 158.662C45.2954 158.574 46.0364 158.499 46.8114 158.436C50.7194 158.116 55.5014 158.073 61.3024 158.023C63.1034 158.007 65.0245 157.989 67.0435 157.964C68.3485 157.948 69.6865 157.929 71.0865 157.903L71.3555 157.897C71.7245 157.89 72.0915 157.883 72.4595 157.877C73.3055 157.861 74.1494 157.846 74.9904 157.831C76.4134 157.805 77.8284 157.78 79.2354 157.757C80.8314 157.731 82.4144 157.707 83.9814 157.686C85.5404 157.665 87.0834 157.648 88.6064 157.636C89.1564 157.631 89.7045 157.627 90.2495 157.624C92.5294 157.61 94.7605 157.609 96.9315 157.623C97.3425 157.626 97.7534 157.628 98.1604 157.632C99.0604 157.64 99.9485 157.653 100.825 157.667C111.397 157.845 120.199 158.499 125.533 160.186C126.599 160.523 127.532 160.9 128.307 161.325C130.888 162.738 133.311 164.484 135.653 166.173C140.262 169.497 144.615 172.635 149.504 172.818C153.983 172.984 160.186 173.155 164.737 173.272C168.175 173.36 170.671 173.417 170.759 173.415C170.759 173.415 168.17 173.784 164.783 174.243C159.063 175.017 151.062 176.047 149.385 175.984C143.539 175.766 138.588 172.196 133.8 168.744C131.536 167.111 129.194 165.423 126.786 164.104C124.011 162.585 118.644 161.723 111.745 161.26C108.674 161.054 105.303 160.926 101.715 160.856C100.919 160.841 100.113 160.828 99.2975 160.818C98.7665 160.811 98.2305 160.806 97.6915 160.802C95.6465 160.785 93.5485 160.782 91.4115 160.791C91.2175 160.792 91.0235 160.793 90.8295 160.794C88.5825 160.805 86.2934 160.828 83.9825 160.858C81.6895 160.888 79.3744 160.925 77.0524 160.965C75.9874 160.983 74.9225 161.003 73.8575 161.022C73.0424 161.037 72.2284 161.052 71.4144 161.067L71.3515 161.068L71.1445 161.072C69.4155 161.104 67.7635 161.127 66.1785 161.145C64.4835 161.165 62.8665 161.179 61.3295 161.192C54.7015 161.249 49.7214 161.332 45.9764 161.708C43.9284 161.913 42.2474 162.205 40.8764 162.63C37.8805 163.559 36.3415 165.116 35.5775 167.764C35.4925 168.06 35.3885 168.325 35.2915 168.602C34.8165 169.953 34.2095 171.078 33.5095 172.004C32.2005 173.735 30.5855 174.792 28.9555 175.377C27.8165 175.786 26.6785 175.969 25.6345 176.002C24.6795 176.033 23.8035 175.946 23.0955 175.785L23.3905 174.476C14.1105 176.994 7.20445 179.686 3.26345 182.485C-16.4655 196.493 45.3254 207.849 141.277 207.849C237.229 207.849 331.006 196.493 350.735 182.485C361.923 174.54 346.887 167.45 314.279 162.799ZM311.179 164.848C308.948 170.694 305.023 174.588 300.54 174.588C300.163 174.588 299.791 174.548 299.423 174.495C297.351 174.193 295.428 173.056 293.766 171.293C291.486 168.874 289.715 165.276 288.755 161.013C290.313 165.73 292.926 169.269 296.046 170.713C297.042 171.174 298.084 171.442 299.165 171.442C299.252 171.442 299.336 171.423 299.422 171.42C302.065 171.324 304.493 169.757 306.447 167.178C307.518 165.765 308.447 164.057 309.187 162.111C310.411 158.892 311.13 155.054 311.13 150.923C311.13 145.366 309.837 140.334 307.745 136.639C310.998 140.41 313.13 146.653 313.13 153.73C313.13 156.858 312.703 159.813 311.958 162.476C311.729 163.297 311.469 164.089 311.179 164.848ZM299.423 164.023C297.414 164.023 295.599 162.66 294.291 160.464C294.167 160.256 294.049 160.038 293.935 159.815C294.149 160.058 294.37 160.286 294.599 160.493C295.713 161.502 296.994 162.081 298.359 162.081C298.721 162.081 299.074 162.027 299.422 161.949C300.055 161.807 300.664 161.547 301.239 161.171C304.085 159.313 306.096 154.795 306.096 149.507C306.096 148.646 306.042 147.805 305.941 146.993C306.38 148.537 306.633 150.255 306.633 152.074C306.633 155.888 305.55 159.277 303.871 161.464C302.646 163.062 301.104 164.023 299.423 164.023ZM315.109 152.675C315.408 148.805 315.502 144.633 314.882 140.7C314.189 136.304 312.601 132.209 309.362 129.185C306.005 126.052 300.813 125.064 295.423 128.568C293.756 129.652 292.07 131.151 290.413 133.168C290.192 133.437 289.979 133.741 289.771 134.06C289.654 134.239 289.537 134.42 289.423 134.613C286.503 139.606 284.909 149.197 284.14 155.467C283.939 157.107 283.794 158.516 283.696 159.558C283.584 160.761 283.533 161.479 283.533 161.479C283.533 161.479 283.434 160.758 283.301 159.528C282.884 155.65 282.138 146.701 283.137 139.266C283.28 138.203 283.457 137.171 283.677 136.19C284.281 133.493 285.092 131.233 286.059 129.318L275.379 131.986L222.323 145.239C224.047 148.2 225.254 151.916 225.614 156.531C225.631 156.753 225.639 156.971 225.653 157.191C225.859 160.441 225.713 163.524 225.43 166.153C225.233 167.979 224.975 169.578 224.728 170.869L225.64 166.868L225.641 166.865L268.527 160.637L270.743 160.315L268.595 160.956L227.084 173.333L223.955 174.266C224.698 171.231 225.016 167.892 224.956 164.582C224.91 162.043 224.634 159.529 224.14 157.177C223.094 152.196 221.078 147.964 218.171 145.935C216.222 144.574 213.376 143.49 210.152 142.97C208.129 142.644 205.957 142.542 203.76 142.735C199.98 143.068 196.133 144.277 192.86 146.734C191.629 147.658 190.478 148.754 189.444 150.05C189.325 150.199 189.218 150.357 189.103 150.51C187.567 152.541 186.356 154.853 185.41 157.423C183.375 162.952 182.552 169.661 182.324 177.299C182.324 177.299 180.908 169.58 181.405 161.793C181.497 160.35 181.653 158.905 181.898 157.506C182.058 156.593 182.254 155.7 182.494 154.841C184.247 148.558 186.774 144.172 189.787 141.191C195.01 136.023 201.695 135.095 208.362 135.929C211.607 136.335 214.95 137.621 217.832 139.953L287.401 127.006C290.912 121.908 295.972 120.301 301.634 120.677C307.725 121.081 313.052 126.037 314.77 134.618C315.425 137.89 315.629 141.289 315.631 144.246C315.636 149.044 315.109 152.675 315.109 152.675ZM218.919 184.245C216.317 192.453 211.125 198.055 205.14 198.055C204.674 198.055 204.214 198.015 203.759 197.948C199.454 197.32 195.654 193.792 193.074 188.546C191.998 186.358 191.133 183.873 190.534 181.174C191.436 183.939 192.63 186.388 194.047 188.39C196.601 191.999 199.874 194.167 203.442 194.167C203.549 194.167 203.654 194.157 203.76 194.153C208.224 193.991 212.203 190.443 214.852 184.938C216.961 180.555 218.227 174.937 218.227 168.811C218.227 164.595 217.624 160.624 216.562 157.126C215.894 154.925 215.044 152.913 214.045 151.149C215.463 152.792 216.707 154.814 217.724 157.13C219.592 161.383 220.698 166.616 220.698 172.279C220.697 176.6 220.053 180.669 218.919 184.245ZM202.446 182.601C202.893 182.601 203.329 182.534 203.76 182.437C208.417 181.394 212.008 174.918 212.008 167.063C212.008 165.999 211.941 164.96 211.816 163.956C212.359 165.864 212.671 167.986 212.671 170.235C212.671 178.389 208.681 184.998 203.76 184.998C201.043 184.998 198.613 182.977 196.979 179.799C198.528 181.561 200.411 182.601 202.446 182.601ZM235.601 79.1922C237.969 74.8522 243.997 71.9722 247.454 71.9722L253.996 71.9782C253.996 71.9782 262.253 71.7572 264.916 72.1462C282.106 74.6582 298.163 94.0442 299.057 96.3582C300.163 99.2202 300.318 100.532 295.676 101.465L226.475 109.344C225.934 109.397 225.456 109.284 225.052 109.079C226.116 108.437 227.228 107.833 228.264 107.402C231.915 105.884 248.375 105.231 250.8 104.214C255.478 102.251 256.246 97.7642 255.297 94.5382C254.348 91.3122 247.236 90.3382 241.255 90.3632C235.274 90.3892 233.285 92.8302 230.104 96.6252C228.861 98.1082 227.553 99.4642 226.158 100.664C229.997 90.4602 232.412 85.0392 235.601 79.1922ZM100.164 187.569C99.4014 187.561 98.6465 187.553 97.8965 187.547C96.4565 187.534 95.0385 187.523 93.6465 187.514C90.2885 187.493 87.0665 187.483 83.9825 187.478C80.3535 187.472 76.9165 187.471 73.6535 187.466C73.3685 187.466 73.0774 187.465 72.7944 187.465C71.0634 187.461 69.3825 187.456 67.7525 187.446C59.8475 187.401 53.1275 187.265 47.4535 186.84C46.0745 186.736 44.7505 186.618 43.4945 186.477C41.1665 186.216 39.0275 185.74 37.0515 185.087C38.5995 181.812 41.5784 178.809 45.2915 177.555C46.0815 177.288 46.9035 177.097 47.7524 177.003C49.8685 176.769 56.6725 176.535 65.2505 176.451C66.7855 176.436 68.3764 176.426 70.0074 176.421C71.6535 176.416 73.3385 176.418 75.0495 176.426C75.3325 176.427 75.6165 176.429 75.9005 176.431C78.5655 176.447 81.2794 176.479 83.9814 176.53C86.0604 176.57 88.1325 176.621 90.1665 176.685C90.7715 176.704 91.3724 176.725 91.9704 176.747C93.9174 176.817 95.8214 176.9 97.6564 176.997C98.6724 177.051 99.6674 177.108 100.636 177.171C101.31 177.214 101.97 177.261 102.617 177.309C103.9 177.404 105.131 177.508 106.294 177.622L102.562 177.81L100.543 177.912L97.4285 178.069L91.4155 178.372L89.1355 178.487L83.9825 178.747L76.8694 179.105L76.6364 179.117L70.4165 179.43L65.6815 179.668L52.3195 180.341L65.8714 180.742L70.6974 180.885L77.9624 181.1L78.6115 181.119L83.9834 181.278L86.4324 181.351L89.7724 181.45L96.4165 181.647L99.8345 181.748L101.87 181.808L122.858 182.429L122.859 182.43L101.581 183.031L99.4865 183.09L95.8405 183.193L87.9854 183.415L83.9825 183.528L80.2534 183.633L71.7715 183.873L71.4715 183.881L66.6434 184.017L60.5565 184.189L66.8244 184.659L71.8465 185.035L72.3224 185.071L83.9834 185.945L94.1395 186.707L98.1295 187.006L100.311 187.17L106.855 187.661C104.57 187.622 102.341 187.592 100.164 187.569Z" fill="#111111"/>
<path d="M87.9932 106.778C88.4272 106.858 88.8612 107.002 89.2872 107.179C93.3102 103.949 98.6942 99.6358 104.025 95.3898C96.9832 94.3348 91.0122 94.7608 87.9962 97.8658C84.5992 101.364 85.1452 106.252 87.9932 106.778Z" fill="#111111"/>
<path d="M29.5557 139.781C30.6277 139.118 31.5867 137.679 31.9817 136.136C32.0297 135.947 32.0807 135.714 32.1307 135.454C31.8837 135.396 31.6337 135.337 31.3907 135.281C30.1287 136.578 28.9487 138.076 27.8867 139.885C28.7197 139.922 29.3737 139.894 29.5557 139.781Z" fill="#111111"/>
<path d="M38.0241 143.304C38.7471 143.678 40.8721 144.711 46.3641 145.151C46.8011 145.186 47.7361 144.536 48.7521 143.707C44.7571 140.761 38.6401 137.379 34.7061 136.113C34.6861 137.165 34.7071 138.078 34.8071 138.555C35.1551 140.209 37.3011 142.93 38.0241 143.304Z" fill="#111111"/>
<path d="M139.925 138.558C140.084 138.026 140.103 136.956 140.057 135.75C133.066 137.015 125.626 140.386 119.863 143.572C121.399 144.467 122.843 145.192 123.499 145.155C131.305 144.715 134.325 143.682 135.353 143.308C136.381 142.933 139.431 140.212 139.925 138.558Z" fill="#111111"/>
<path d="M147.391 139.782C148.147 140.111 154.58 139.738 156.616 139.016C157.808 138.593 160.856 137.176 161.364 135.654C161.51 135.218 161.606 134.309 161.67 133.242C157.3 133.269 151.159 133.968 143.652 135.155C143.751 135.537 143.849 135.878 143.943 136.137C144.504 137.68 145.866 139.119 147.391 139.782Z" fill="#111111"/>
<path d="M131.763 75.5894C129.73 73.5194 128.311 70.8434 127.802 67.8444L126.128 57.9844L124.454 67.8444C123.42 73.9324 118.651 78.7014 112.563 79.7354L102.703 81.4094L112.563 83.0834C114.299 83.3784 115.922 83.9854 117.388 84.8324C121.062 86.9544 123.715 90.6234 124.454 94.9754L126.128 104.836L127.802 94.9754C128.836 88.8874 133.605 84.1184 139.693 83.0844L149.553 81.4104L139.693 79.7364C136.604 79.2114 133.858 77.7224 131.763 75.5894Z" fill="#BD9648"/>
<path d="M312.146 56.9126C308.245 56.2506 305.19 53.1946 304.527 49.2946L303.454 42.9766L302.381 49.2946C301.718 53.1956 298.663 56.2506 294.762 56.9126L288.445 57.9856L294.763 59.0586C298.663 59.7206 301.719 62.7766 302.381 66.6776L303.454 72.9946L304.527 66.6776C305.189 62.7766 308.245 59.7216 312.146 59.0586L318.464 57.9856L312.146 56.9126Z" fill="#BD9648"/>
<path d="M255.536 25.0975C257.987 27.6025 257.569 32.7835 254.76 36.3895C250.774 41.5075 245.5 44.2195 240.764 43.6945L226.417 41.8805C220.638 41.2405 214.627 27.8225 212.697 22.1285C210.841 16.6505 206.758 -0.230469 206.758 -0.230469C206.758 -0.230469 202.677 16.6515 200.821 22.1285C198.892 27.8235 192.88 41.2405 187.101 41.8805L172.753 43.6945C168.017 44.2185 162.744 41.5065 158.757 36.3895C155.949 32.7835 155.529 27.6025 157.98 25.0975L160.055 22.9765C154.121 21.2395 142.688 15.5875 142.688 15.5875L158.369 47.5425C161.205 53.3215 167.081 56.9835 173.518 56.9835H239.997C246.434 56.9835 252.309 53.3215 255.145 47.5425L270.827 15.5875C270.827 15.5875 259.393 21.2395 253.459 22.9765L255.536 25.0975Z" fill="#BD9648"/>
</g>
<defs>
<clipPath id="clip0_2700_8169">
<rect width="354" height="208" fill="white"/>
</clipPath>
</defs>
</svg>
